<?xml version="1.0" encoding="UTF-8"?>
<!DOCTYPE svg PUBLIC "-//W3C//DTD SVG 1.1//EN" "http://www.w3.org/Graphics/SVG/1.1/DTD/svg11.dtd">
<svg xmlns="http://www.w3.org/2000/svg" version="1.1" width="1000px" height="1000px" style="shape-rendering:geometricPrecision; text-rendering:geometricPrecision; image-rendering:optimizeQuality; fill-rule:evenodd; clip-rule:evenodd" xmlns:xlink="http://www.w3.org/1999/xlink">
<g><path style="opacity:1" fill="#f8f8f8" d="M -0.5,-0.5 C 332.833,-0.5 666.167,-0.5 999.5,-0.5C 999.5,332.833 999.5,666.167 999.5,999.5C 666.167,999.5 332.833,999.5 -0.5,999.5C -0.5,666.167 -0.5,332.833 -0.5,-0.5 Z"/></g>
<g><path style="opacity:1" fill="#f9faf9" d="M 286.5,1.5 C 287.043,1.55999 287.376,1.89333 287.5,2.5C 286.277,3.61385 284.944,3.78052 283.5,3C 284.737,2.76791 285.737,2.26791 286.5,1.5 Z"/></g>
<g><path style="opacity:1" fill="#f9faf9" d="M 629.5,13.5 C 629.56,12.9569 629.893,12.6236 630.5,12.5C 631.583,13.365 631.749,14.365 631,15.5C 630.722,14.5842 630.222,13.9175 629.5,13.5 Z"/></g>
<g><path style="opacity:1" fill="#f9faf9" d="M 550.5,31.5 C 550.56,30.9569 550.893,30.6236 551.5,30.5C 552.583,31.365 552.749,32.365 552,33.5C 551.722,32.5842 551.222,31.9175 550.5,31.5 Z"/></g>
<g><path style="opacity:1" fill="#f9faf9" d="M 579.5,50.5 C 581.975,50.7467 581.975,51.4134 579.5,52.5C 578.537,52.0302 578.537,51.3635 579.5,50.5 Z"/></g>
<g><path style="opacity:1" fill="#f9faf9" d="M 113.5,66.5 C 114.573,67.2506 114.74,68.2506 114,69.5C 112.272,68.6477 112.105,67.6477 113.5,66.5 Z"/></g>
<g><path style="opacity:1" fill="#f9faf9" d="M 283.5,67.5 C 284.598,68.6009 284.765,69.9343 284,71.5C 283.25,70.8742 282.416,70.3742 281.5,70C 282.756,69.5831 283.423,68.7498 283.5,67.5 Z"/></g>
<g><path style="opacity:1" fill="#f9faf9" d="M 695.5,72.5 C 696.267,73.172 696.934,74.0053 697.5,75C 695.939,75.1881 695.272,74.3547 695.5,72.5 Z"/></g>
<g><path style="opacity:1" fill="#f9faf9" d="M 791.5,89.5 C 792.497,88.2875 793.497,88.4542 794.5,90C 793.423,90.4696 792.423,90.3029 791.5,89.5 Z"/></g>
<g><path style="opacity:1" fill="#f9faf9" d="M 579.5,114.5 C 581.975,114.747 581.975,115.413 579.5,116.5C 578.537,116.03 578.537,115.363 579.5,114.5 Z"/></g>
<g><path style="opacity:1" fill="#f9faf9" d="M 113.5,130.5 C 114.573,131.251 114.74,132.251 114,133.5C 112.272,132.648 112.105,131.648 113.5,130.5 Z"/></g>
<g><path style="opacity:1" fill="#f9faf9" d="M 283.5,131.5 C 284.598,132.601 284.765,133.934 284,135.5C 283.25,134.874 282.416,134.374 281.5,134C 282.756,133.583 283.423,132.75 283.5,131.5 Z"/></g>
<g><path style="opacity:1" fill="#f9faf9" d="M 695.5,136.5 C 696.267,137.172 696.934,138.005 697.5,139C 695.939,139.188 695.272,138.355 695.5,136.5 Z"/></g>
<g><path style="opacity:1" fill="#f9faf9" d="M 791.5,153.5 C 792.497,152.287 793.497,152.454 794.5,154C 793.423,154.47 792.423,154.303 791.5,153.5 Z"/></g>
<g><path style="opacity:1" fill="#f9faf9" d="M 579.5,178.5 C 581.975,178.747 581.975,179.413 579.5,180.5C 578.537,180.03 578.537,179.363 579.5,178.5 Z"/></g>
<g><path style="opacity:1" fill="#f9faf9" d="M 113.5,194.5 C 114.573,195.251 114.74,196.251 114,197.5C 112.272,196.648 112.105,195.648 113.5,194.5 Z"/></g>
<g><path style="opacity:1" fill="#f9faf9" d="M 283.5,195.5 C 284.598,196.601 284.765,197.934 284,199.5C 283.25,198.874 282.416,198.374 281.5,198C 282.756,197.583 283.423,196.75 283.5,195.5 Z"/></g>
<g><path style="opacity:1" fill="#f9faf9" d="M 695.5,200.5 C 696.267,201.172 696.934,202.005 697.5,203C 695.939,203.188 695.272,202.355 695.5,200.5 Z"/></g>
<g><path style="opacity:1" fill="#f9faf9" d="M 791.5,217.5 C 792.497,216.287 793.497,216.454 794.5,218C 793.423,218.47 792.423,218.303 791.5,217.5 Z"/></g>
<g><path style="opacity:1" fill="#f9faf9" d="M 579.5,242.5 C 581.975,242.747 581.975,243.413 579.5,244.5C 578.537,244.03 578.537,243.363 579.5,242.5 Z"/></g>
<g><path style="opacity:1" fill="#f9faf9" d="M 113.5,258.5 C 114.573,259.251 114.74,260.251 114,261.5C 112.272,260.648 112.105,259.648 113.5,258.5 Z"/></g>
<g><path style="opacity:1" fill="#f9faf9" d="M 283.5,259.5 C 284.598,260.601 284.765,261.934 284,263.5C 283.25,262.874 282.416,262.374 281.5,262C 282.756,261.583 283.423,260.75 283.5,259.5 Z"/></g>
<g><path style="opacity:1" fill="#f9faf9" d="M 695.5,264.5 C 696.267,265.172 696.934,266.005 697.5,267C 695.939,267.188 695.272,266.355 695.5,264.5 Z"/></g>
<g><path style="opacity:1" fill="#f9faf9" d="M 791.5,281.5 C 792.497,280.287 793.497,280.454 794.5,282C 793.423,282.47 792.423,282.303 791.5,281.5 Z"/></g>
<g><path style="opacity:1" fill="#f9faf9" d="M 579.5,306.5 C 581.975,306.747 581.975,307.413 579.5,308.5C 578.537,308.03 578.537,307.363 579.5,306.5 Z"/></g>
<g><path style="opacity:1" fill="#f9faf9" d="M 113.5,322.5 C 114.573,323.251 114.74,324.251 114,325.5C 112.272,324.648 112.105,323.648 113.5,322.5 Z"/></g>
<g><path style="opacity:1" fill="#f9faf9" d="M 283.5,323.5 C 284.598,324.601 284.765,325.934 284,327.5C 283.25,326.874 282.416,326.374 281.5,326C 282.756,325.583 283.423,324.75 283.5,323.5 Z"/></g>
<g><path style="opacity:1" fill="#f9faf9" d="M 695.5,328.5 C 696.267,329.172 696.934,330.005 697.5,331C 695.939,331.188 695.272,330.355 695.5,328.5 Z"/></g>
<g><path style="opacity:1" fill="#f9faf9" d="M 791.5,345.5 C 792.497,344.287 793.497,344.454 794.5,346C 793.423,346.47 792.423,346.303 791.5,345.5 Z"/></g>
<g><path style="opacity:1" fill="#f9faf9" d="M 579.5,370.5 C 581.975,370.747 581.975,371.413 579.5,372.5C 578.537,372.03 578.537,371.363 579.5,370.5 Z"/></g>
<g><path style="opacity:1" fill="#f9faf9" d="M 113.5,386.5 C 114.573,387.251 114.74,388.251 114,389.5C 112.272,388.648 112.105,387.648 113.5,386.5 Z"/></g>
<g><path style="opacity:1" fill="#f9faf9" d="M 283.5,387.5 C 284.598,388.601 284.765,389.934 284,391.5C 283.25,390.874 282.416,390.374 281.5,390C 282.756,389.583 283.423,388.75 283.5,387.5 Z"/></g>
<g><path style="opacity:1" fill="#f9faf9" d="M 695.5,392.5 C 696.267,393.172 696.934,394.005 697.5,395C 695.939,395.188 695.272,394.355 695.5,392.5 Z"/></g>
<g><path style="opacity:1" fill="#f9faf9" d="M 791.5,409.5 C 792.497,408.287 793.497,408.454 794.5,410C 793.423,410.47 792.423,410.303 791.5,409.5 Z"/></g>
<g><path style="opacity:1" fill="#f9faf9" d="M 579.5,434.5 C 581.975,434.747 581.975,435.413 579.5,436.5C 578.537,436.03 578.537,435.363 579.5,434.5 Z"/></g>
<g><path style="opacity:1" fill="#f9faf9" d="M 113.5,450.5 C 114.573,451.251 114.74,452.251 114,453.5C 112.272,452.648 112.105,451.648 113.5,450.5 Z"/></g>
<g><path style="opacity:1" fill="#f9faf9" d="M 283.5,451.5 C 284.598,452.601 284.765,453.934 284,455.5C 283.25,454.874 282.416,454.374 281.5,454C 282.756,453.583 283.423,452.75 283.5,451.5 Z"/></g>
<g><path style="opacity:1" fill="#f9faf9" d="M 695.5,456.5 C 696.267,457.172 696.934,458.005 697.5,459C 695.939,459.188 695.272,458.355 695.5,456.5 Z"/></g>
<g><path style="opacity:1" fill="#f9faf9" d="M 791.5,473.5 C 792.497,472.287 793.497,472.454 794.5,474C 793.423,474.47 792.423,474.303 791.5,473.5 Z"/></g>
<g><path style="opacity:1" fill="#f9faf9" d="M 579.5,498.5 C 581.975,498.747 581.975,499.413 579.5,500.5C 578.537,500.03 578.537,499.363 579.5,498.5 Z"/></g>
<g><path style="opacity:1" fill="#f9faf9" d="M 113.5,514.5 C 114.573,515.251 114.74,516.251 114,517.5C 112.272,516.648 112.105,515.648 113.5,514.5 Z"/></g>
<g><path style="opacity:1" fill="#f9faf9" d="M 283.5,515.5 C 284.598,516.601 284.765,517.934 284,519.5C 283.25,518.874 282.416,518.374 281.5,518C 282.756,517.583 283.423,516.75 283.5,515.5 Z"/></g>
<g><path style="opacity:1" fill="#f9faf9" d="M 695.5,520.5 C 696.267,521.172 696.934,522.005 697.5,523C 695.939,523.188 695.272,522.355 695.5,520.5 Z"/></g>
<g><path style="opacity:1" fill="#f9faf9" d="M 791.5,537.5 C 792.497,536.287 793.497,536.454 794.5,538C 793.423,538.47 792.423,538.303 791.5,537.5 Z"/></g>
<g><path style="opacity:1" fill="#f9faf9" d="M 579.5,562.5 C 581.975,562.747 581.975,563.413 579.5,564.5C 578.537,564.03 578.537,563.363 579.5,562.5 Z"/></g>
<g><path style="opacity:1" fill="#f9faf9" d="M 113.5,578.5 C 114.573,579.251 114.74,580.251 114,581.5C 112.272,580.648 112.105,579.648 113.5,578.5 Z"/></g>
<g><path style="opacity:1" fill="#f9faf9" d="M 283.5,579.5 C 284.598,580.601 284.765,581.934 284,583.5C 283.25,582.874 282.416,582.374 281.5,582C 282.756,581.583 283.423,580.75 283.5,579.5 Z"/></g>
<g><path style="opacity:1" fill="#f9faf9" d="M 695.5,584.5 C 696.267,585.172 696.934,586.005 697.5,587C 695.939,587.188 695.272,586.355 695.5,584.5 Z"/></g>
<g><path style="opacity:1" fill="#f9faf9" d="M 791.5,601.5 C 792.497,600.287 793.497,600.454 794.5,602C 793.423,602.47 792.423,602.303 791.5,601.5 Z"/></g>
<g><path style="opacity:1" fill="#f9faf9" d="M 579.5,626.5 C 581.975,626.747 581.975,627.413 579.5,628.5C 578.537,628.03 578.537,627.363 579.5,626.5 Z"/></g>
<g><path style="opacity:1" fill="#f9faf9" d="M 113.5,642.5 C 114.573,643.251 114.74,644.251 114,645.5C 112.272,644.648 112.105,643.648 113.5,642.5 Z"/></g>
<g><path style="opacity:1" fill="#f9faf9" d="M 283.5,643.5 C 284.598,644.601 284.765,645.934 284,647.5C 283.25,646.874 282.416,646.374 281.5,646C 282.756,645.583 283.423,644.75 283.5,643.5 Z"/></g>
<g><path style="opacity:1" fill="#f9faf9" d="M 695.5,648.5 C 696.267,649.172 696.934,650.005 697.5,651C 695.939,651.188 695.272,650.355 695.5,648.5 Z"/></g>
<g><path style="opacity:1" fill="#f9faf9" d="M 791.5,665.5 C 792.497,664.287 793.497,664.454 794.5,666C 793.423,666.47 792.423,666.303 791.5,665.5 Z"/></g>
<g><path style="opacity:1" fill="#f9faf9" d="M 579.5,690.5 C 581.975,690.747 581.975,691.413 579.5,692.5C 578.537,692.03 578.537,691.363 579.5,690.5 Z"/></g>
<g><path style="opacity:1" fill="#f9faf9" d="M 113.5,706.5 C 114.573,707.251 114.74,708.251 114,709.5C 112.272,708.648 112.105,707.648 113.5,706.5 Z"/></g>
<g><path style="opacity:1" fill="#f9faf9" d="M 283.5,707.5 C 284.598,708.601 284.765,709.934 284,711.5C 283.25,710.874 282.416,710.374 281.5,710C 282.756,709.583 283.423,708.75 283.5,707.5 Z"/></g>
<g><path style="opacity:1" fill="#f9faf9" d="M 695.5,712.5 C 696.267,713.172 696.934,714.005 697.5,715C 695.939,715.188 695.272,714.355 695.5,712.5 Z"/></g>
<g><path style="opacity:1" fill="#f9faf9" d="M 791.5,729.5 C 792.497,728.287 793.497,728.454 794.5,730C 793.423,730.47 792.423,730.303 791.5,729.5 Z"/></g>
<g><path style="opacity:1" fill="#f9faf9" d="M 579.5,754.5 C 581.975,754.747 581.975,755.413 579.5,756.5C 578.537,756.03 578.537,755.363 579.5,754.5 Z"/></g>
<g><path style="opacity:1" fill="#f9faf9" d="M 113.5,770.5 C 114.573,771.251 114.74,772.251 114,773.5C 112.272,772.648 112.105,771.648 113.5,770.5 Z"/></g>
<g><path style="opacity:1" fill="#f9faf9" d="M 283.5,771.5 C 284.598,772.601 284.765,773.934 284,775.5C 283.25,774.874 282.416,774.374 281.5,774C 282.756,773.583 283.423,772.75 283.5,771.5 Z"/></g>
<g><path style="opacity:1" fill="#f9faf9" d="M 695.5,776.5 C 696.267,777.172 696.934,778.005 697.5,779C 695.939,779.188 695.272,778.355 695.5,776.5 Z"/></g>
<g><path style="opacity:1" fill="#f9faf9" d="M 791.5,793.5 C 792.497,792.287 793.497,792.454 794.5,794C 793.423,794.47 792.423,794.303 791.5,793.5 Z"/></g>
<g><path style="opacity:1" fill="#f9faf9" d="M 579.5,818.5 C 581.975,818.747 581.975,819.413 579.5,820.5C 578.537,820.03 578.537,819.363 579.5,818.5 Z"/></g>
<g><path style="opacity:1" fill="#f9faf9" d="M 113.5,834.5 C 114.573,835.251 114.74,836.251 114,837.5C 112.272,836.648 112.105,835.648 113.5,834.5 Z"/></g>
<g><path style="opacity:1" fill="#f9faf9" d="M 283.5,835.5 C 284.598,836.601 284.765,837.934 284,839.5C 283.25,838.874 282.416,838.374 281.5,838C 282.756,837.583 283.423,836.75 283.5,835.5 Z"/></g>
<g><path style="opacity:1" fill="#f9faf9" d="M 695.5,840.5 C 696.267,841.172 696.934,842.005 697.5,843C 695.939,843.188 695.272,842.355 695.5,840.5 Z"/></g>
<g><path style="opacity:1" fill="#f9faf9" d="M 791.5,857.5 C 792.497,856.287 793.497,856.454 794.5,858C 793.423,858.47 792.423,858.303 791.5,857.5 Z"/></g>
<g><path style="opacity:1" fill="#f9faf9" d="M 579.5,882.5 C 581.975,882.747 581.975,883.413 579.5,884.5C 578.537,884.03 578.537,883.363 579.5,882.5 Z"/></g>
<g><path style="opacity:1" fill="#f9faf9" d="M 113.5,898.5 C 114.573,899.251 114.74,900.251 114,901.5C 112.272,900.648 112.105,899.648 113.5,898.5 Z"/></g>
<g><path style="opacity:1" fill="#f9faf9" d="M 283.5,899.5 C 284.598,900.601 284.765,901.934 284,903.5C 283.25,902.874 282.416,902.374 281.5,902C 282.756,901.583 283.423,900.75 283.5,899.5 Z"/></g>
<g><path style="opacity:1" fill="#f9faf9" d="M 695.5,904.5 C 696.267,905.172 696.934,906.005 697.5,907C 695.939,907.188 695.272,906.355 695.5,904.5 Z"/></g>
<g><path style="opacity:1" fill="#f9faf9" d="M 791.5,921.5 C 792.497,920.287 793.497,920.454 794.5,922C 793.423,922.47 792.423,922.303 791.5,921.5 Z"/></g>
<g><path style="opacity:1" fill="#f9faf9" d="M 579.5,946.5 C 581.975,946.747 581.975,947.413 579.5,948.5C 578.537,948.03 578.537,947.363 579.5,946.5 Z"/></g>
<g><path style="opacity:1" fill="#f9faf9" d="M 113.5,962.5 C 114.573,963.251 114.74,964.251 114,965.5C 112.272,964.648 112.105,963.648 113.5,962.5 Z"/></g>
<g><path style="opacity:1" fill="#f9faf9" d="M 283.5,963.5 C 284.598,964.601 284.765,965.934 284,967.5C 283.25,966.874 282.416,966.374 281.5,966C 282.756,965.583 283.423,964.75 283.5,963.5 Z"/></g>
<g><path style="opacity:1" fill="#f9faf9" d="M 695.5,968.5 C 696.267,969.172 696.934,970.005 697.5,971C 695.939,971.188 695.272,970.355 695.5,968.5 Z"/></g>
<g><path style="opacity:1" fill="#f9faf9" d="M 791.5,985.5 C 792.497,984.287 793.497,984.454 794.5,986C 793.423,986.47 792.423,986.303 791.5,985.5 Z"/></g>
</svg>
