<?xml version="1.0" encoding="UTF-8"?>
<!DOCTYPE svg PUBLIC "-//W3C//DTD SVG 1.1//EN" "http://www.w3.org/Graphics/SVG/1.1/DTD/svg11.dtd">
<svg xmlns="http://www.w3.org/2000/svg" version="1.1" width="1000px" height="1000px" style="shape-rendering:geometricPrecision; text-rendering:geometricPrecision; image-rendering:optimizeQuality; fill-rule:evenodd; clip-rule:evenodd" xmlns:xlink="http://www.w3.org/1999/xlink">
<g><path style="opacity:0.141" fill="#c35b09" d="M 535.5,464.5 C 534.501,398.335 534.168,332.002 534.5,265.5C 556.167,265.5 577.833,265.5 599.5,265.5C 599.5,240.5 599.5,215.5 599.5,190.5C 532.833,190.5 466.167,190.5 399.5,190.5C 399.5,215.5 399.5,240.5 399.5,265.5C 398.502,240.339 398.169,215.005 398.5,189.5C 465.833,189.5 533.167,189.5 600.5,189.5C 600.5,215.167 600.5,240.833 600.5,266.5C 578.833,266.5 557.167,266.5 535.5,266.5C 535.5,332.5 535.5,398.5 535.5,464.5 Z"/></g>
<g><path style="opacity:0.999" fill="#c18023" d="M 535.5,464.5 C 601.5,464.5 667.5,464.5 733.5,464.5C 734.497,443.006 734.831,421.34 734.5,399.5C 759.5,399.5 784.5,399.5 809.5,399.5C 809.5,466.5 809.5,533.5 809.5,600.5C 784.167,600.5 758.833,600.5 733.5,600.5C 733.5,578.833 733.5,557.167 733.5,535.5C 667.335,534.501 601.002,534.168 534.5,534.5C 534.5,600.833 534.5,667.167 534.5,733.5C 556.167,733.5 577.833,733.5 599.5,733.5C 599.5,758.5 599.5,783.5 599.5,808.5C 532.833,808.5 466.167,808.5 399.5,808.5C 398.167,783.5 398.167,758.5 399.5,733.5C 421.167,733.5 442.833,733.5 464.5,733.5C 464.5,667.167 464.5,600.833 464.5,534.5C 397.998,534.168 331.665,534.501 265.5,535.5C 265.5,556.833 265.5,578.167 265.5,599.5C 240.5,599.5 215.5,599.5 190.5,599.5C 190.5,532.833 190.5,466.167 190.5,399.5C 215.167,399.5 239.833,399.5 264.5,399.5C 264.169,421.34 264.503,443.006 265.5,464.5C 331.5,464.5 397.5,464.5 463.5,464.5C 464.499,398.335 464.832,332.002 464.5,265.5C 442.833,265.5 421.167,265.5 399.5,265.5C 399.5,240.5 399.5,215.5 399.5,190.5C 466.167,190.5 532.833,190.5 599.5,190.5C 599.5,215.5 599.5,240.5 599.5,265.5C 577.833,265.5 556.167,265.5 534.5,265.5C 534.168,332.002 534.501,398.335 535.5,464.5 Z"/></g>
<g><path style="opacity:0.031" fill="#c45109" d="M 399.5,265.5 C 421.167,265.5 442.833,265.5 464.5,265.5C 464.832,332.002 464.499,398.335 463.5,464.5C 463.5,398.5 463.5,332.5 463.5,266.5C 441.993,266.831 420.66,266.497 399.5,265.5 Z"/></g>
<g><path style="opacity:1" fill="#daab67" d="M 372.5,326.5 C 386.99,327.496 401.657,327.829 416.5,327.5C 416.5,342.167 416.5,356.833 416.5,371.5C 401.657,371.171 386.99,371.504 372.5,372.5C 371.504,386.99 371.171,401.657 371.5,416.5C 356.833,416.5 342.167,416.5 327.5,416.5C 327.829,401.657 327.496,386.99 326.5,372.5C 312.01,371.504 297.343,371.171 282.5,371.5C 282.5,356.833 282.5,342.167 282.5,327.5C 297.343,327.829 312.01,327.496 326.5,326.5C 327.496,312.01 327.829,297.343 327.5,282.5C 342.167,282.5 356.833,282.5 371.5,282.5C 371.171,297.343 371.504,312.01 372.5,326.5 Z"/></g>
<g><path style="opacity:1" fill="#daab67" d="M 672.5,326.5 C 686.99,327.496 701.657,327.829 716.5,327.5C 716.5,342.167 716.5,356.833 716.5,371.5C 701.657,371.171 686.99,371.504 672.5,372.5C 671.504,386.99 671.171,401.657 671.5,416.5C 656.833,416.5 642.167,416.5 627.5,416.5C 627.829,401.657 627.496,386.99 626.5,372.5C 612.01,371.504 597.343,371.171 582.5,371.5C 582.5,356.833 582.5,342.167 582.5,327.5C 597.343,327.829 612.01,327.496 626.5,326.5C 627.496,312.01 627.829,297.343 627.5,282.5C 642.167,282.5 656.833,282.5 671.5,282.5C 671.171,297.343 671.504,312.01 672.5,326.5 Z"/></g>
<g><path style="opacity:0.529" fill="#dd9a5a" d="M 372.5,326.5 C 371.504,312.01 371.171,297.343 371.5,282.5C 356.833,282.5 342.167,282.5 327.5,282.5C 327.829,297.343 327.496,312.01 326.5,326.5C 326.167,326.5 325.833,326.5 325.5,326.5C 325.176,311.588 325.509,296.755 326.5,282C 341.83,281.5 357.163,281.333 372.5,281.5C 372.5,296.5 372.5,311.5 372.5,326.5 Z"/></g>
<g><path style="opacity:0.529" fill="#dd9a5a" d="M 672.5,326.5 C 671.504,312.01 671.171,297.343 671.5,282.5C 656.833,282.5 642.167,282.5 627.5,282.5C 627.829,297.343 627.496,312.01 626.5,326.5C 626.167,326.5 625.833,326.5 625.5,326.5C 625.176,311.588 625.509,296.755 626.5,282C 641.83,281.5 657.163,281.333 672.5,281.5C 672.5,296.5 672.5,311.5 672.5,326.5 Z"/></g>
<g><path style="opacity:0.561" fill="#daa360" d="M 672.5,326.5 C 687.5,326.5 702.5,326.5 717.5,326.5C 717.5,341.833 717.5,357.167 717.5,372.5C 702.5,372.5 687.5,372.5 672.5,372.5C 686.99,371.504 701.657,371.171 716.5,371.5C 716.5,356.833 716.5,342.167 716.5,327.5C 701.657,327.829 686.99,327.496 672.5,326.5 Z"/></g>
<g><path style="opacity:0.561" fill="#daa360" d="M 372.5,326.5 C 387.5,326.5 402.5,326.5 417.5,326.5C 417.5,341.833 417.5,357.167 417.5,372.5C 402.5,372.5 387.5,372.5 372.5,372.5C 386.99,371.504 401.657,371.171 416.5,371.5C 416.5,356.833 416.5,342.167 416.5,327.5C 401.657,327.829 386.99,327.496 372.5,326.5 Z"/></g>
<g><path style="opacity:0.576" fill="#de9457" d="M 625.5,326.5 C 625.833,326.5 626.167,326.5 626.5,326.5C 612.01,327.496 597.343,327.829 582.5,327.5C 582.5,342.167 582.5,356.833 582.5,371.5C 597.343,371.171 612.01,371.504 626.5,372.5C 626.5,387.5 626.5,402.5 626.5,417.5C 625.504,402.676 625.171,387.676 625.5,372.5C 610.5,372.5 595.5,372.5 580.5,372.5C 580.333,357.496 580.5,342.496 581,327.5C 595.755,326.509 610.588,326.176 625.5,326.5 Z"/></g>
<g><path style="opacity:0.576" fill="#de9457" d="M 325.5,326.5 C 325.833,326.5 326.167,326.5 326.5,326.5C 312.01,327.496 297.343,327.829 282.5,327.5C 282.5,342.167 282.5,356.833 282.5,371.5C 297.343,371.171 312.01,371.504 326.5,372.5C 326.5,387.5 326.5,402.5 326.5,417.5C 325.504,402.676 325.171,387.676 325.5,372.5C 310.5,372.5 295.5,372.5 280.5,372.5C 280.333,357.496 280.5,342.496 281,327.5C 295.755,326.509 310.588,326.176 325.5,326.5 Z"/></g>
<g><path style="opacity:0.423" fill="#c06d11" d="M 189.5,399.5 C 214.661,398.502 239.995,398.169 265.5,398.5C 265.5,420.5 265.5,442.5 265.5,464.5C 264.503,443.006 264.169,421.34 264.5,399.5C 239.833,399.5 215.167,399.5 190.5,399.5C 190.167,399.5 189.833,399.5 189.5,399.5 Z"/></g>
<g><path style="opacity:0.438" fill="#c06d11" d="M 809.5,399.5 C 784.5,399.5 759.5,399.5 734.5,399.5C 734.831,421.34 734.497,443.006 733.5,464.5C 733.5,442.5 733.5,420.5 733.5,398.5C 759.005,398.169 784.339,398.502 809.5,399.5 Z"/></g>
<g><path style="opacity:0.576" fill="#c36813" d="M 189.5,399.5 C 189.833,399.5 190.167,399.5 190.5,399.5C 190.5,466.167 190.5,532.833 190.5,599.5C 215.5,599.5 240.5,599.5 265.5,599.5C 240.098,600.832 214.598,600.832 189,599.5C 188.168,532.665 188.335,465.999 189.5,399.5 Z"/></g>
<g><path style="opacity:0.592" fill="#daa360" d="M 326.5,372.5 C 327.496,386.99 327.829,401.657 327.5,416.5C 342.167,416.5 356.833,416.5 371.5,416.5C 371.171,401.657 371.504,386.99 372.5,372.5C 372.5,387.5 372.5,402.5 372.5,417.5C 357.167,417.5 341.833,417.5 326.5,417.5C 326.5,402.5 326.5,387.5 326.5,372.5 Z"/></g>
<g><path style="opacity:0.592" fill="#daa360" d="M 626.5,372.5 C 627.496,386.99 627.829,401.657 627.5,416.5C 642.167,416.5 656.833,416.5 671.5,416.5C 671.171,401.657 671.504,386.99 672.5,372.5C 672.5,387.5 672.5,402.5 672.5,417.5C 657.167,417.5 641.833,417.5 626.5,417.5C 626.5,402.5 626.5,387.5 626.5,372.5 Z"/></g>
<g><path style="opacity:0.031" fill="#c44f09" d="M 265.5,535.5 C 331.665,534.501 397.998,534.168 464.5,534.5C 464.5,600.833 464.5,667.167 464.5,733.5C 442.833,733.5 421.167,733.5 399.5,733.5C 420.66,732.503 441.993,732.169 463.5,732.5C 463.5,666.833 463.5,601.167 463.5,535.5C 397.5,535.5 331.5,535.5 265.5,535.5 Z"/></g>
<g><path style="opacity:0.016" fill="#c74a0b" d="M 733.5,535.5 C 667.5,535.5 601.5,535.5 535.5,535.5C 535.5,601.167 535.5,666.833 535.5,732.5C 557.007,732.169 578.34,732.503 599.5,733.5C 577.833,733.5 556.167,733.5 534.5,733.5C 534.5,667.167 534.5,600.833 534.5,534.5C 601.002,534.168 667.335,534.501 733.5,535.5 Z"/></g>
<g><path style="opacity:1" fill="#daab67" d="M 372.5,626.5 C 386.99,627.496 401.657,627.829 416.5,627.5C 416.5,642.167 416.5,656.833 416.5,671.5C 401.657,671.171 386.99,671.504 372.5,672.5C 371.504,686.99 371.171,701.657 371.5,716.5C 356.833,716.5 342.167,716.5 327.5,716.5C 327.829,701.657 327.496,686.99 326.5,672.5C 312.01,671.504 297.343,671.171 282.5,671.5C 282.5,656.833 282.5,642.167 282.5,627.5C 297.343,627.829 312.01,627.496 326.5,626.5C 327.496,612.01 327.829,597.343 327.5,582.5C 342.167,582.5 356.833,582.5 371.5,582.5C 371.171,597.343 371.504,612.01 372.5,626.5 Z"/></g>
<g><path style="opacity:1" fill="#daab67" d="M 672.5,626.5 C 686.99,627.496 701.657,627.829 716.5,627.5C 716.5,642.167 716.5,656.833 716.5,671.5C 701.657,671.171 686.99,671.504 672.5,672.5C 671.504,686.99 671.171,701.657 671.5,716.5C 656.833,716.5 642.167,716.5 627.5,716.5C 627.829,701.657 627.496,686.99 626.5,672.5C 612.01,671.504 597.343,671.171 582.5,671.5C 582.5,656.833 582.5,642.167 582.5,627.5C 597.343,627.829 612.01,627.496 626.5,626.5C 627.496,612.01 627.829,597.343 627.5,582.5C 642.167,582.5 656.833,582.5 671.5,582.5C 671.171,597.343 671.504,612.01 672.5,626.5 Z"/></g>
<g><path style="opacity:0.529" fill="#dd9a5a" d="M 672.5,626.5 C 671.504,612.01 671.171,597.343 671.5,582.5C 656.833,582.5 642.167,582.5 627.5,582.5C 627.829,597.343 627.496,612.01 626.5,626.5C 626.167,626.5 625.833,626.5 625.5,626.5C 625.176,611.588 625.509,596.755 626.5,582C 641.83,581.5 657.163,581.333 672.5,581.5C 672.5,596.5 672.5,611.5 672.5,626.5 Z"/></g>
<g><path style="opacity:0.529" fill="#dd9a5a" d="M 372.5,626.5 C 371.504,612.01 371.171,597.343 371.5,582.5C 356.833,582.5 342.167,582.5 327.5,582.5C 327.829,597.343 327.496,612.01 326.5,626.5C 326.167,626.5 325.833,626.5 325.5,626.5C 325.176,611.588 325.509,596.755 326.5,582C 341.83,581.5 357.163,581.333 372.5,581.5C 372.5,596.5 372.5,611.5 372.5,626.5 Z"/></g>
<g><path style="opacity:0.576" fill="#de9457" d="M 625.5,626.5 C 625.833,626.5 626.167,626.5 626.5,626.5C 612.01,627.496 597.343,627.829 582.5,627.5C 582.5,642.167 582.5,656.833 582.5,671.5C 597.343,671.171 612.01,671.504 626.5,672.5C 626.5,687.5 626.5,702.5 626.5,717.5C 625.504,702.676 625.171,687.676 625.5,672.5C 610.5,672.5 595.5,672.5 580.5,672.5C 580.333,657.496 580.5,642.496 581,627.5C 595.755,626.509 610.588,626.176 625.5,626.5 Z"/></g>
<g><path style="opacity:0.561" fill="#daa360" d="M 672.5,626.5 C 687.5,626.5 702.5,626.5 717.5,626.5C 717.5,641.833 717.5,657.167 717.5,672.5C 702.5,672.5 687.5,672.5 672.5,672.5C 686.99,671.504 701.657,671.171 716.5,671.5C 716.5,656.833 716.5,642.167 716.5,627.5C 701.657,627.829 686.99,627.496 672.5,626.5 Z"/></g>
<g><path style="opacity:0.561" fill="#daa360" d="M 372.5,626.5 C 387.5,626.5 402.5,626.5 417.5,626.5C 417.5,641.833 417.5,657.167 417.5,672.5C 402.5,672.5 387.5,672.5 372.5,672.5C 386.99,671.504 401.657,671.171 416.5,671.5C 416.5,656.833 416.5,642.167 416.5,627.5C 401.657,627.829 386.99,627.496 372.5,626.5 Z"/></g>
<g><path style="opacity:0.576" fill="#de9457" d="M 325.5,626.5 C 325.833,626.5 326.167,626.5 326.5,626.5C 312.01,627.496 297.343,627.829 282.5,627.5C 282.5,642.167 282.5,656.833 282.5,671.5C 297.343,671.171 312.01,671.504 326.5,672.5C 326.5,687.5 326.5,702.5 326.5,717.5C 325.504,702.676 325.171,687.676 325.5,672.5C 310.5,672.5 295.5,672.5 280.5,672.5C 280.333,657.496 280.5,642.496 281,627.5C 295.755,626.509 310.588,626.176 325.5,626.5 Z"/></g>
<g><path style="opacity:0.592" fill="#daa360" d="M 326.5,672.5 C 327.496,686.99 327.829,701.657 327.5,716.5C 342.167,716.5 356.833,716.5 371.5,716.5C 371.171,701.657 371.504,686.99 372.5,672.5C 372.5,687.5 372.5,702.5 372.5,717.5C 357.167,717.5 341.833,717.5 326.5,717.5C 326.5,702.5 326.5,687.5 326.5,672.5 Z"/></g>
<g><path style="opacity:0.592" fill="#daa360" d="M 626.5,672.5 C 627.496,686.99 627.829,701.657 627.5,716.5C 642.167,716.5 656.833,716.5 671.5,716.5C 671.171,701.657 671.504,686.99 672.5,672.5C 672.5,687.5 672.5,702.5 672.5,717.5C 657.167,717.5 641.833,717.5 626.5,717.5C 626.5,702.5 626.5,687.5 626.5,672.5 Z"/></g>
<g><path style="opacity:0.173" fill="#c16408" d="M 599.5,733.5 C 600.498,758.661 600.831,783.995 600.5,809.5C 533.331,809.832 466.331,809.499 399.5,808.5C 466.167,808.5 532.833,808.5 599.5,808.5C 599.5,783.5 599.5,758.5 599.5,733.5 Z"/></g>
</svg>
